<svg width="400" height="400" viewBox="0 0 400 400" fill="none" xmlns="http://www.w3.org/2000/svg">
<rect width="400" height="400" fill="#93380E"/>
<path d="M162.67 160.625H147.739C147.466 158.693 146.909 156.977 146.068 155.477C145.227 153.955 144.148 152.659 142.83 151.591C141.511 150.523 139.989 149.705 138.261 149.136C136.557 148.568 134.705 148.284 132.705 148.284C129.091 148.284 125.943 149.182 123.261 150.977C120.58 152.75 118.5 155.341 117.023 158.75C115.545 162.136 114.807 166.25 114.807 171.091C114.807 176.068 115.545 180.25 117.023 183.636C118.523 187.023 120.614 189.58 123.295 191.307C125.977 193.034 129.08 193.898 132.602 193.898C134.58 193.898 136.409 193.636 138.091 193.114C139.795 192.591 141.307 191.83 142.625 190.83C143.943 189.807 145.034 188.568 145.898 187.114C146.784 185.659 147.398 184 147.739 182.136L162.67 182.205C162.284 185.409 161.318 188.5 159.773 191.477C158.25 194.432 156.193 197.08 153.602 199.42C151.034 201.739 147.966 203.58 144.398 204.943C140.852 206.284 136.841 206.955 132.364 206.955C126.136 206.955 120.568 205.545 115.659 202.727C110.773 199.909 106.909 195.83 104.068 190.489C101.25 185.148 99.8409 178.682 99.8409 171.091C99.8409 163.477 101.273 157 104.136 151.659C107 146.318 110.886 142.25 115.795 139.455C120.705 136.636 126.227 135.227 132.364 135.227C136.409 135.227 140.159 135.795 143.614 136.932C147.091 138.068 150.17 139.727 152.852 141.909C155.534 144.068 157.716 146.716 159.398 149.852C161.102 152.989 162.193 156.58 162.67 160.625ZM219.551 158.75C219.074 157.091 218.403 155.625 217.54 154.352C216.676 153.057 215.619 151.966 214.369 151.08C213.142 150.17 211.733 149.477 210.142 149C208.574 148.523 206.835 148.284 204.926 148.284C201.358 148.284 198.222 149.17 195.517 150.943C192.835 152.716 190.744 155.295 189.244 158.682C187.744 162.045 186.994 166.159 186.994 171.023C186.994 175.886 187.733 180.023 189.21 183.432C190.688 186.841 192.778 189.443 195.483 191.239C198.188 193.011 201.381 193.898 205.062 193.898C208.403 193.898 211.256 193.307 213.619 192.125C216.006 190.92 217.824 189.227 219.074 187.045C220.347 184.864 220.983 182.284 220.983 179.307L223.983 179.75H205.983V168.636H235.199V177.432C235.199 183.568 233.903 188.841 231.312 193.25C228.722 197.636 225.153 201.023 220.608 203.409C216.062 205.773 210.858 206.955 204.994 206.955C198.449 206.955 192.699 205.511 187.744 202.625C182.79 199.716 178.926 195.591 176.153 190.25C173.403 184.886 172.028 178.523 172.028 171.159C172.028 165.5 172.847 160.455 174.483 156.023C176.142 151.568 178.46 147.795 181.438 144.705C184.415 141.614 187.881 139.261 191.835 137.648C195.79 136.034 200.074 135.227 204.688 135.227C208.642 135.227 212.324 135.807 215.733 136.966C219.142 138.102 222.165 139.716 224.801 141.807C227.46 143.898 229.631 146.386 231.312 149.273C232.994 152.136 234.074 155.295 234.551 158.75H219.551ZM284.162 156.261C283.889 153.511 282.719 151.375 280.651 149.852C278.582 148.33 275.776 147.568 272.23 147.568C269.821 147.568 267.787 147.909 266.128 148.591C264.469 149.25 263.196 150.17 262.31 151.352C261.446 152.534 261.014 153.875 261.014 155.375C260.969 156.625 261.23 157.716 261.798 158.648C262.389 159.58 263.196 160.386 264.219 161.068C265.241 161.727 266.423 162.307 267.764 162.807C269.105 163.284 270.537 163.693 272.06 164.034L278.332 165.534C281.378 166.216 284.173 167.125 286.719 168.261C289.264 169.398 291.469 170.795 293.332 172.455C295.196 174.114 296.639 176.068 297.662 178.318C298.707 180.568 299.241 183.148 299.264 186.057C299.241 190.33 298.151 194.034 295.991 197.17C293.855 200.284 290.764 202.705 286.719 204.432C282.696 206.136 277.844 206.989 272.162 206.989C266.526 206.989 261.616 206.125 257.435 204.398C253.276 202.67 250.026 200.114 247.685 196.727C245.366 193.318 244.151 189.102 244.037 184.08H258.321C258.48 186.42 259.151 188.375 260.332 189.943C261.537 191.489 263.139 192.659 265.139 193.455C267.162 194.227 269.446 194.614 271.991 194.614C274.491 194.614 276.662 194.25 278.503 193.523C280.366 192.795 281.81 191.784 282.832 190.489C283.855 189.193 284.366 187.705 284.366 186.023C284.366 184.455 283.901 183.136 282.969 182.068C282.06 181 280.719 180.091 278.946 179.341C277.196 178.591 275.048 177.909 272.503 177.295L264.901 175.386C259.014 173.955 254.366 171.716 250.957 168.67C247.548 165.625 245.855 161.523 245.878 156.364C245.855 152.136 246.98 148.443 249.253 145.284C251.548 142.125 254.696 139.659 258.696 137.886C262.696 136.114 267.241 135.227 272.332 135.227C277.514 135.227 282.037 136.114 285.901 137.886C289.787 139.659 292.81 142.125 294.969 145.284C297.128 148.443 298.241 152.102 298.31 156.261H284.162Z" fill="white"/>
<path d="M43.2273 275V240.091H64.2955V243.841H47.4545V255.636H63.2045V259.386H47.4545V271.25H64.5682V275H43.2273ZM99.5966 240.091V275H95.5057L76.483 247.591H76.142V275H71.9148V240.091H76.0057L95.0966 267.568H95.4375V240.091H99.5966ZM131.919 251C131.544 249.852 131.05 248.824 130.436 247.915C129.834 246.994 129.112 246.21 128.271 245.562C127.442 244.915 126.499 244.42 125.442 244.08C124.385 243.739 123.226 243.568 121.964 243.568C119.896 243.568 118.016 244.102 116.322 245.17C114.629 246.239 113.283 247.812 112.283 249.892C111.283 251.972 110.783 254.523 110.783 257.545C110.783 260.568 111.288 263.119 112.3 265.199C113.311 267.278 114.68 268.852 116.408 269.92C118.135 270.989 120.078 271.523 122.237 271.523C124.237 271.523 125.999 271.097 127.521 270.244C129.055 269.381 130.249 268.165 131.101 266.597C131.964 265.017 132.396 263.159 132.396 261.023L133.692 261.295H123.192V257.545H136.487V261.295C136.487 264.17 135.874 266.67 134.646 268.795C133.43 270.92 131.749 272.568 129.601 273.739C127.464 274.898 125.01 275.477 122.237 275.477C119.146 275.477 116.43 274.75 114.089 273.295C111.76 271.841 109.942 269.773 108.635 267.091C107.339 264.409 106.692 261.227 106.692 257.545C106.692 254.784 107.061 252.301 107.8 250.097C108.55 247.881 109.607 245.994 110.97 244.438C112.334 242.881 113.947 241.688 115.811 240.858C117.675 240.028 119.726 239.614 121.964 239.614C123.805 239.614 125.521 239.892 127.112 240.449C128.714 240.994 130.141 241.773 131.391 242.784C132.652 243.784 133.703 244.983 134.544 246.381C135.385 247.767 135.964 249.307 136.283 251H131.919ZM147.955 240.091V275H143.727V240.091H147.955ZM184.112 240.091V275H180.021L160.999 247.591H160.658V275H156.43V240.091H160.521L179.612 267.568H179.953V240.091H184.112ZM192.571 275V240.091H213.639V243.841H196.798V255.636H212.548V259.386H196.798V271.25H213.912V275H192.571ZM221.259 275V240.091H242.327V243.841H225.486V255.636H241.236V259.386H225.486V271.25H242.599V275H221.259ZM249.946 275V240.091H261.741C264.469 240.091 266.707 240.557 268.457 241.489C270.207 242.409 271.503 243.676 272.344 245.29C273.185 246.903 273.605 248.739 273.605 250.795C273.605 252.852 273.185 254.676 272.344 256.267C271.503 257.858 270.213 259.108 268.474 260.017C266.736 260.915 264.514 261.364 261.81 261.364H252.264V257.545H261.673C263.537 257.545 265.037 257.273 266.173 256.727C267.321 256.182 268.151 255.409 268.662 254.409C269.185 253.398 269.446 252.193 269.446 250.795C269.446 249.398 269.185 248.176 268.662 247.131C268.139 246.085 267.304 245.278 266.156 244.71C265.009 244.131 263.491 243.841 261.605 243.841H254.173V275H249.946ZM266.378 259.318L274.969 275H270.06L261.605 259.318H266.378ZM284.876 240.091V275H280.649V240.091H284.876ZM321.034 240.091V275H316.943L297.92 247.591H297.58V275H293.352V240.091H297.443L316.534 267.568H316.875V240.091H321.034ZM353.357 251C352.982 249.852 352.487 248.824 351.874 247.915C351.271 246.994 350.55 246.21 349.709 245.562C348.879 244.915 347.936 244.42 346.879 244.08C345.822 243.739 344.663 243.568 343.402 243.568C341.334 243.568 339.453 244.102 337.76 245.17C336.067 246.239 334.72 247.812 333.72 249.892C332.72 251.972 332.22 254.523 332.22 257.545C332.22 260.568 332.726 263.119 333.737 265.199C334.749 267.278 336.118 268.852 337.845 269.92C339.572 270.989 341.516 271.523 343.675 271.523C345.675 271.523 347.436 271.097 348.959 270.244C350.493 269.381 351.686 268.165 352.538 266.597C353.402 265.017 353.834 263.159 353.834 261.023L355.129 261.295H344.629V257.545H357.925V261.295C357.925 264.17 357.311 266.67 356.084 268.795C354.868 270.92 353.186 272.568 351.038 273.739C348.902 274.898 346.447 275.477 343.675 275.477C340.584 275.477 337.868 274.75 335.527 273.295C333.197 271.841 331.379 269.773 330.072 267.091C328.777 264.409 328.129 261.227 328.129 257.545C328.129 254.784 328.499 252.301 329.237 250.097C329.987 247.881 331.044 245.994 332.408 244.438C333.771 242.881 335.385 241.688 337.249 240.858C339.112 240.028 341.163 239.614 343.402 239.614C345.243 239.614 346.959 239.892 348.55 240.449C350.152 240.994 351.578 241.773 352.828 242.784C354.089 243.784 355.141 244.983 355.982 246.381C356.822 247.767 357.402 249.307 357.72 251H353.357Z" fill="white"/>
</svg>
