<svg width="58.2" height="65.67" viewBox="20 20 58.2 65.67" xmlns="http://www.w3.org/2000/svg">
  <path d="M29.39 29.39L29.39 29.39Q29.97 29.39 30.85 29.68L30.85 29.68Q34.53 31.72 41.23 35.60Q47.92 39.48 50.05 40.74L50.05 40.74Q50.73 41.23 53.06 42.39Q55.39 43.55 56.65 44.72L56.65 44.72Q57.81 45.88 58.10 47.72L58.10 47.72Q58.20 47.72 58.20 59.85L58.20 59.85L58.10 71.97Q58.10 72.17 58.10 74.01Q58.10 75.85 58.01 76.44Q57.91 77.02 57.52 78.18L57.52 78.18Q57.04 79.35 56.07 79.93L56.07 79.93Q52.77 81.87 46.27 85.65L46.27 85.65Q39.77 89.34 36.57 91.28L36.57 91.28Q35.89 91.57 33.95 92.83Q32.01 94.09 30.46 94.58L30.46 94.58Q29.00 95.06 27.45 94.58L27.45 94.58Q24.83 93.12 6.21 82.55L6.21 82.55Q6.01 82.35 4.95 81.77L4.95 81.77Q3.98 81.19 3.59 81.00Q3.20 80.80 2.43 80.22Q1.65 79.64 1.26 79.15Q0.87 78.67 0.58 77.99L0.58 77.99Q0.19 77.31 0.10 76.53L0.10 76.53Q0 72.46 0 51.89L0 51.89Q0 51.70 0 50.05L0 50.05Q0 48.31 0.10 47.72Q0.19 47.14 0.58 45.98L0.58 45.98Q1.07 44.91 1.94 44.23L1.94 44.23Q5.72 41.90 13.00 37.83L13.00 37.83Q20.27 33.66 21.63 32.88L21.63 32.88Q22.41 32.50 23.96 31.52L23.96 31.52Q25.41 30.55 26.77 29.97L26.77 29.97Q28.03 29.39 29.39 29.39ZM30.17 42.68L30.17 42.68Q25.41 42.49 21.05 44.43Q16.68 46.37 13.77 50.15L13.77 50.15Q9.41 55.58 9.80 62.95Q10.19 70.33 14.94 75.47L14.94 75.47Q19.79 80.80 27.55 81.38Q35.31 81.97 40.93 77.41L40.93 77.41Q41.23 77.11 42.20 76.24Q43.16 75.37 43.75 74.79L43.75 74.79Q44.43 74.11 45.01 73.33Q45.59 72.56 45.40 71.88Q45.20 71.20 44.13 70.81L44.13 70.81Q43.36 70.62 42.00 69.74L42.00 69.74Q40.74 68.87 39.77 68.19L39.77 68.19Q38.80 67.41 37.73 67.41Q36.67 67.41 36.08 68.68L36.08 68.68Q33.27 71.97 28.62 71.68L28.62 71.68Q23.86 71.39 21.34 67.80L21.34 67.80Q18.72 64.50 19.59 60.24L19.59 60.24Q20.47 55.87 24.15 53.84L24.15 53.84Q27.35 51.80 31.23 52.67L31.23 52.67Q35.11 53.64 37.25 56.84L37.25 56.84Q38.80 56.74 42.00 54.71Q45.20 52.67 45.88 52.38L45.88 52.38Q43.46 48.21 39.19 45.59Q34.92 42.97 30.17 42.68ZM43.46 57.23L40.26 57.23L40.26 60.43L36.96 60.43L36.96 63.73L40.26 63.73L40.26 66.93L43.46 66.93L43.46 63.73L46.75 63.73L46.75 60.43L43.46 60.43L43.46 57.23ZM54.42 57.23L51.22 57.23L51.22 60.43L48.02 60.43L48.02 63.73L51.22 63.73L51.22 66.93L54.42 66.93L54.42 63.73L57.62 63.73L57.62 60.43L54.42 60.43L54.42 57.23Z" transform="translate(20, -9.390999999999991)" fill="#000000"/>
</svg>