<svg width="58.2" height="71.58" viewBox="20 20 58.2 71.58" xmlns="http://www.w3.org/2000/svg">
  <path d="M0 90.02L0 34.14Q0 30.94 2.33 28.61Q4.66 26.29 7.86 26.29L7.86 26.29L37.25 26.29Q40.64 26.29 42.78 28.52L42.78 28.52L55.77 41.61Q58.10 43.84 58.20 47.14L58.20 47.14L58.20 90.02Q58.20 93.22 55.87 95.55Q53.54 97.87 50.25 97.87L50.25 97.87L7.86 97.87Q4.66 97.87 2.33 95.55Q0 93.22 0 90.02L0 90.02ZM31.23 32.98L7.86 32.98Q6.79 32.98 6.69 34.14L6.69 34.14L6.69 90.02Q6.69 91.08 7.86 91.08L7.86 91.08L50.25 91.08Q51.41 91.08 51.41 90.02L51.41 90.02L51.41 53.06L39.09 53.06Q35.89 53.06 33.56 50.83L33.56 50.83Q31.23 48.50 31.23 45.30L31.23 45.30L31.23 32.98ZM38.02 33.37L38.02 33.27L38.02 45.30Q38.02 46.37 39.09 46.37L39.09 46.37L51.12 46.37L51.12 46.37L38.02 33.37Z" transform="translate(20, -6.286999999999992)" fill="#000000"/>
</svg>
