<svg width="58.49" height="40.74" viewBox="19.62 20 58.49 40.74" xmlns="http://www.w3.org/2000/svg">
  <path d="M31.91 54.90L31.91 60.33L25.90 60.33L25.90 54.90L31.91 54.90ZM25.90 41.71L31.91 41.71L31.91 47.24L25.90 47.24L25.90 41.71ZM32.98 54.90L38.99 54.90L38.99 60.33L32.98 60.33L32.98 54.90ZM18.82 48.40L24.73 48.40L24.73 53.84L18.82 53.84L18.82 48.40ZM25.90 48.40L31.91 48.40L31.91 53.84L25.90 53.84L25.90 48.40ZM57.04 57.42L57.04 57.42L58.20 58.20Q57.72 59.27 57.42 59.85L57.42 59.85Q55.19 64.12 49.18 63.92L49.18 63.92Q45.49 72.94 37.73 77.70L37.73 77.70Q30.07 82.45 19.30 82.45L19.30 82.45Q9.41 82.45 4.37 76.44L4.37 76.44Q1.84 73.43 0.78 69.36Q-0.29 65.28 0.29 61.69L0.29 61.69L39.77 61.69Q42.00 61.79 44.13 60.72L44.13 60.72Q42.78 58.59 43.07 55.87L43.07 55.87Q43.26 53.16 44.52 51.31L44.52 51.31L45.40 50.05L46.66 50.92Q49.95 53.45 50.34 56.65L50.34 56.65Q52.09 56.26 54.03 56.55L54.03 56.55Q56.07 56.74 57.04 57.42ZM4.56 54.90L10.57 54.90L10.67 54.90L10.67 60.33L4.56 60.33L4.56 54.90ZM11.64 54.90L17.65 54.90L17.65 60.33L11.64 60.33L11.64 54.90ZM18.82 54.90L24.73 54.90L24.73 60.33L18.82 60.33L18.82 54.90ZM11.64 48.40L17.65 48.40L17.65 53.84L11.64 53.84L11.64 48.40Z" transform="translate(19.913777777777778, -21.71)" fill="#000000"/>
</svg>