<svg width="58.2" height="46.56" viewBox="20 20 58.2 46.56" xmlns="http://www.w3.org/2000/svg">
  <path d="M58.20 79.54L58.20 44.62Q58.20 42.10 56.45 40.45Q54.71 38.80 52.38 38.80L52.38 38.80L5.82 38.80Q3.49 38.80 1.75 40.45Q0 42.10 0 44.62L0 44.62L0 79.54Q0 82.06 1.75 83.71Q3.49 85.36 5.82 85.36L5.82 85.36L52.38 85.36Q54.71 85.36 56.45 83.71Q58.20 82.06 58.20 79.54L58.20 79.54ZM5.82 44.62L52.38 44.62L29.10 59.17L5.82 44.62ZM52.38 50.44L52.38 79.54L5.82 79.54L5.82 50.44L29.10 64.99L52.38 50.44Z" transform="translate(20, -18.799999999999997)" fill="#000000"/>
</svg>