<svg width="58.1" height="56.94" viewBox="20 20 58.1 56.94" xmlns="http://www.w3.org/2000/svg">
  <path d="M8.54 42.20Q17.07 33.66 29.10 33.66Q41.13 33.66 49.66 42.20Q58.20 50.73 58.10 62.76L58.10 62.76Q58.10 72.36 52.57 79.93Q47.05 87.49 38.22 90.40L38.22 90.40Q37.25 90.60 36.76 90.11Q36.28 89.63 36.28 89.05L36.28 89.05Q36.28 88.95 36.28 86.14Q36.28 83.32 36.38 81.00L36.38 81.00Q36.38 77.31 34.34 75.56L34.34 75.56Q37.15 75.27 39.19 74.59Q41.23 73.91 43.26 72.36L43.26 72.36Q45.30 70.91 46.46 68.09Q47.63 65.28 47.53 61.21L47.53 61.21Q47.53 56.55 44.62 53.45L44.62 53.45Q45.98 49.95 44.33 45.78L44.33 45.78Q41.90 44.91 36.38 48.69L36.38 48.69Q32.88 47.72 29.10 47.72L29.10 47.72Q25.51 47.72 21.82 48.79L21.82 48.79Q19.40 47.14 17.27 46.37L17.27 46.37Q15.23 45.59 14.55 45.69L14.55 45.69L13.77 45.78Q12.13 50.05 13.58 53.45L13.58 53.45Q10.57 56.65 10.57 61.21L10.57 61.21Q10.57 65.18 11.64 68.09L11.64 68.09Q12.80 70.91 14.84 72.36Q16.88 73.82 18.91 74.59Q20.95 75.37 23.77 75.66L23.77 75.66Q22.21 76.92 21.92 79.54L21.92 79.54Q16.30 82.06 13.48 77.11L13.48 77.11Q11.93 74.30 9.02 74.11L9.02 74.11Q8.73 74.11 8.34 74.20Q7.95 74.30 7.66 74.69L7.66 74.69Q7.28 75.08 8.73 75.85L8.73 75.85Q10.67 76.73 12.03 80.12L12.03 80.12Q12.13 80.32 12.22 80.70L12.22 80.70Q12.42 81.00 13.19 81.87L13.19 81.87Q13.87 82.74 14.84 83.13L14.84 83.13Q15.91 83.52 17.75 83.91Q19.59 84.29 21.82 83.52L21.82 83.52L21.82 89.05Q21.82 89.72 21.34 90.11L21.34 90.11Q20.86 90.60 19.89 90.40L19.89 90.40Q11.06 87.49 5.53 79.93Q0 72.36 0 62.76L0 62.76Q0 50.73 8.54 42.20ZM10.96 75.47L10.96 75.47Q10.86 75.66 10.57 75.47L10.57 75.47Q10.09 75.27 10.19 75.08L10.19 75.08Q10.38 74.79 10.77 74.98Q11.16 75.17 10.96 75.47ZM12.13 76.14Q12.32 76.53 12.13 76.73Q11.93 76.92 11.64 76.63L11.64 76.63Q11.45 76.24 11.54 76.05L11.54 76.05Q11.93 75.76 12.13 76.14ZM13.29 77.79Q13.58 78.18 13.29 78.47Q13.00 78.76 12.71 78.18L12.71 78.18Q12.42 77.79 12.71 77.50Q13.00 77.21 13.29 77.79L13.29 77.79ZM14.74 79.25Q15.23 79.73 14.94 80.03Q14.65 80.32 14.16 80.03L14.16 80.03Q13.68 79.54 13.97 79.25L13.97 79.25Q14.07 79.06 14.36 79.06Q14.65 79.06 14.74 79.25L14.74 79.25ZM17.07 81.00L17.07 81.00Q16.88 81.38 16.30 81.19Q15.71 81.00 15.81 80.61L15.81 80.61Q16.00 80.22 16.59 80.41L16.59 80.41Q17.27 80.51 17.07 81.00ZM19.50 81.09L19.50 81.09Q19.50 81.58 18.82 81.58Q18.14 81.58 18.14 81.19L18.14 81.19Q18.14 80.70 18.82 80.70Q19.50 80.70 19.50 81.09ZM21.63 80.80L21.63 80.80Q21.82 81.19 21.05 81.38L21.05 81.38Q20.47 81.58 20.37 81.00L20.37 81.00Q20.18 80.61 20.95 80.41L20.95 80.41Q21.44 80.22 21.63 80.80ZM21.63 80.80L21.63 80.80Z" transform="translate(20, -13.658999999999999)" fill="#000000"/>
</svg>