<svg width="58.2" height="21.65" viewBox="20 20 58.2 21.65" xmlns="http://www.w3.org/2000/svg">
  <path d="M14.65 57.81L4.27 57.81L4.27 57.62L4.95 56.94L5.14 56.74L15.23 56.74L15.42 56.94L14.84 57.62L14.65 57.81ZM13.48 60.33L0.10 60.33L0 60.24L0.58 59.46L0.97 59.36L13.77 59.36L13.97 59.66L13.68 60.24L13.48 60.33ZM13.10 62.95L6.89 62.95L6.89 62.86L7.28 62.08L7.47 61.98L13.19 61.98L13.29 62.08L13.29 62.86L13.10 62.95ZM36.28 57.33L36.28 57.33L31.62 58.49L31.62 58.49Q31.23 58.59 31.09 58.54Q30.94 58.49 30.65 58.20L30.65 58.20Q29.97 57.42 29.39 57.13L29.39 57.13Q26.97 55.87 24.35 57.62L24.35 57.62Q21.34 59.56 21.44 62.95L21.44 62.95Q21.44 64.70 22.50 66.01Q23.57 67.32 25.12 67.51L25.12 67.51Q27.94 67.80 30.17 65.57L30.17 65.57L30.85 64.60L25.41 64.60Q24.54 64.60 24.83 63.63L24.83 63.63L26.29 60.63Q26.58 60.14 27.06 60.14L27.06 60.14L35.99 60.14Q36.67 58.39 38.02 56.36L38.02 56.36Q41.03 52.48 45.88 51.70L45.88 51.70Q50.54 50.83 54.03 53.20Q57.52 55.58 58.01 59.46L58.01 59.46Q58.78 64.99 54.61 69.06L54.61 69.06Q51.90 71.78 47.92 72.75L47.92 72.75L45.69 72.94Q41.61 72.85 38.70 70.52L38.70 70.52Q36.57 68.77 35.99 66.15L35.99 66.15L34.82 68.00Q31.72 72.17 26.77 72.75L26.77 72.75Q22.50 73.53 19.21 71.05Q15.91 68.58 15.52 64.70L15.52 64.70Q15.04 60.14 17.99 56.26Q20.95 52.38 25.90 51.51L25.90 51.51Q30.07 50.73 33.27 52.87L33.27 52.87Q35.50 54.32 36.67 56.74L36.67 56.74Q36.76 57.23 36.28 57.33ZM52.48 61.50L52.48 61.50L52.28 60.63Q51.90 58.49 50.25 57.42Q48.60 56.36 46.46 56.74L46.46 56.74Q42.39 57.71 41.52 61.69L41.52 61.69Q41.13 63.24 41.90 64.80Q42.68 66.35 44.13 67.03L44.13 67.03Q46.46 68.00 48.79 66.93L48.79 66.93Q52.19 65.18 52.48 61.50Z" transform="translate(20, -31.300069824218745)" fill="#00add8"/>
</svg>
