<svg width="58.2" height="58.21" viewBox="20 20 58.2 58.21" xmlns="http://www.w3.org/2000/svg">
  <path d="M4.27 32.98L53.93 32.98Q55.48 32.98 56.84 34.14L56.84 34.14Q58.01 35.41 58.20 37.15L58.20 37.15L58.20 86.91Q58.20 88.66 56.94 89.92Q55.68 91.18 53.93 91.18L53.93 91.18L4.27 91.18L4.27 91.18Q2.52 91.18 1.26 89.92Q0 88.66 0 86.91L0 86.91L0 37.15Q0 35.41 1.26 34.14Q2.52 32.88 4.27 32.98L4.27 32.98L4.27 32.98ZM8.54 82.55L17.27 82.55L17.27 54.71L8.54 54.71L8.54 82.55ZM13.00 50.92L13.00 50.92L13.00 50.92Q14.94 50.92 16.49 49.47L16.49 49.47Q18.04 48.02 18.04 45.98Q18.04 43.94 16.49 42.39L16.49 42.39Q15.13 40.93 13.00 40.93L13.00 40.93Q10.86 40.93 9.41 42.39Q7.95 43.84 7.95 45.98L7.95 45.98Q7.95 48.02 9.51 49.47L9.51 49.47Q10.86 50.92 13.00 50.92ZM40.93 82.55L49.47 82.55L49.47 67.22Q49.47 60.82 47.34 57.42Q45.20 54.03 39.19 54.03L39.19 54.03Q36.28 54.03 34.14 55.39L34.14 55.39Q32.01 56.74 31.04 58.59L31.04 58.59L31.04 58.59L31.04 54.71L22.70 54.71L22.70 82.55L31.23 82.55L31.23 68.77Q31.23 61.59 36.47 61.59L36.47 61.59Q38.02 61.59 38.99 62.27L38.99 62.27Q39.96 62.95 40.35 64.21L40.35 64.21Q40.74 65.47 40.84 66.44Q40.93 67.41 40.93 68.97L40.93 68.97L40.93 82.55Z" transform="translate(20, -12.973074435763891)" fill="#000000"/>
</svg>