<svg width="58.59" height="70.61" viewBox="19.55 20 58.59 70.61" xmlns="http://www.w3.org/2000/svg">
  <path d="M28.71 43.75L28.71 43.75L28.23 43.55Q28.23 43.36 28.32 43.36L28.32 43.36Q28.52 43.16 29.10 43.36L29.10 43.36Q29.59 43.55 29.59 43.75Q29.59 43.94 29.10 44.04L29.10 44.04Q29.00 44.04 28.91 43.94L28.91 43.94Q28.81 43.75 28.71 43.75ZM25.71 44.04L25.71 44.04Q25.32 44.04 25.32 43.84L25.32 43.84Q25.32 43.55 25.71 43.36L25.71 43.36Q26.29 43.16 26.48 43.36L26.48 43.36Q26.58 43.36 26.58 43.55L26.58 43.55L26.09 43.75Q26.00 43.75 25.90 43.94L25.90 43.94Q25.80 44.04 25.71 44.04ZM56.07 82.45L56.07 82.45Q58.30 84.88 58.20 86.43L58.20 86.43Q58.10 87.78 56.36 88.95L56.36 88.95Q55.77 89.24 54.22 90.02L54.22 90.02Q52.57 90.79 51.41 91.67L51.41 91.67Q50.15 92.44 49.28 93.41L49.28 93.41Q46.08 97.10 42.68 97.29L42.68 97.29Q38.90 97.48 37.15 94.09L37.15 94.09Q36.86 93.51 36.76 93.22L36.76 93.22Q35.11 93.31 32.69 92.93L32.69 92.93Q30.17 92.54 29.20 92.64L29.20 92.64Q27.55 92.73 25.51 93.12L25.51 93.12Q23.38 93.51 22.60 93.51L22.60 93.51Q21.53 95.74 19.01 96.32L19.01 96.32Q15.62 97.19 11.35 94.87L11.35 94.87Q10.19 94.28 8.73 93.99Q7.28 93.70 5.63 93.51L5.63 93.51Q3.88 93.31 3.20 93.22L3.20 93.22Q1.26 92.83 0.39 91.47L0.39 91.47Q-0.39 90.11 0.68 87.11L0.68 87.11Q0.87 86.52 0.68 84.29L0.68 84.29Q0.48 82.64 0.39 82.55L0.39 82.55Q0.39 81.58 0.78 80.90L0.78 80.90Q1.55 79.54 3.40 78.96L3.40 78.96Q5.04 78.38 5.63 77.79L5.63 77.79Q5.82 77.60 6.60 76.53Q7.37 75.47 7.95 74.98L7.95 74.98Q7.37 71.78 8.92 67.71L8.92 67.71Q11.06 61.30 16.78 54.32L16.78 54.32Q19.50 50.44 19.98 45.49L19.98 45.49Q19.98 44.81 19.79 42.58L19.79 42.58Q19.69 40.45 19.59 38.70Q19.50 36.96 20.08 34.63L20.08 34.63Q20.56 32.30 21.53 30.65L21.53 30.65Q22.60 29.00 24.93 27.94Q27.26 26.87 30.65 26.87L30.65 26.87Q33.85 26.87 35.99 28.13Q38.12 29.39 39.09 31.33Q40.06 33.27 40.64 35.79L40.64 35.79Q41.23 38.22 41.13 40.55Q41.03 42.87 41.03 44.81Q41.03 46.75 41.81 48.69L41.81 48.69Q42.49 50.63 43.26 51.70Q44.04 52.77 45.69 54.80L45.69 54.80Q50.15 60.14 52.09 64.99L52.09 64.99Q54.42 70.91 52.57 75.95L52.57 75.95Q52.67 75.95 52.77 76.05Q52.87 76.14 52.96 76.14L52.96 76.14Q53.06 76.24 53.16 76.24L53.16 76.24Q53.35 76.34 53.64 76.63L53.64 76.63Q54.61 77.50 55.10 79.64L55.10 79.64Q55.48 81.77 56.07 82.45ZM29.10 38.80L29.10 38.80Q28.52 40.16 28.71 41.81L28.71 41.81Q28.91 41.90 29.20 42.00L29.20 42.00Q29.59 42.10 29.97 42.10L29.97 42.10Q30.36 42.20 30.55 42.39L30.55 42.39Q30.36 41.13 30.85 40.16L30.85 40.16Q31.43 39.19 32.11 39.28L32.11 39.28Q32.98 39.38 33.47 40.55L33.47 40.55Q33.85 41.81 33.37 43.07L33.37 43.07Q33.27 43.16 32.79 43.65L32.79 43.65Q33.37 43.84 33.95 44.04L33.95 44.04L34.63 44.33Q35.50 43.36 35.60 41.81L35.60 41.81Q35.79 40.25 35.21 38.70L35.21 38.70Q34.24 36.47 32.11 36.57L32.11 36.57Q30.07 36.47 29.10 38.80ZM23.57 37.25L23.57 37.25Q21.63 37.25 21.24 40.06L21.24 40.06Q20.86 42.97 22.41 44.43L22.41 44.43L23.28 43.65L23.18 43.65L23.18 43.65Q22.41 42.97 22.50 41.42Q22.60 39.87 23.47 39.77L23.47 39.77Q24.06 39.67 24.44 40.64L24.44 40.64Q24.83 41.52 24.73 42.49L24.73 42.49Q25.22 42.20 26.09 41.90L26.09 41.90Q26.29 39.96 25.41 38.61L25.41 38.61Q24.64 37.25 23.57 37.25ZM23.57 44.13L21.63 45.59Q20.76 46.27 21.05 47.34L21.05 47.34Q21.44 48.60 23.09 49.47L23.09 49.47Q23.57 49.76 24.35 50.54L24.35 50.54Q25.22 51.31 25.80 51.51Q26.38 51.70 27.16 51.70L27.16 51.70Q28.71 51.80 30.46 50.83Q32.20 49.86 32.49 49.76L32.49 49.76Q34.92 48.89 35.60 47.24Q36.28 45.59 34.14 44.72L34.14 44.72Q33.56 44.43 32.49 44.04Q31.43 43.65 31.04 43.36L31.04 43.36Q29.10 42.10 27.45 42.20L27.45 42.20Q25.61 42.20 23.57 44.13L23.57 44.13ZM22.12 91.57L22.12 91.57Q22.31 89.92 19.50 86.33L19.50 86.33Q16.78 82.74 16.39 82.16L16.39 82.16L13.77 77.21Q12.32 75.27 10.77 74.98L10.77 74.98Q9.31 74.79 8.34 75.95L8.34 75.95Q8.05 76.24 7.37 77.11Q6.69 77.99 6.40 78.47L6.40 78.47Q5.63 79.15 3.69 79.83L3.69 79.83Q2.04 80.41 1.65 81.38L1.65 81.38Q1.16 82.16 1.46 84.10L1.46 84.10Q1.75 86.43 1.55 87.40L1.55 87.40Q0.68 89.92 1.26 91.08L1.26 91.08Q1.75 91.96 3.40 92.25Q5.04 92.54 7.57 92.83L7.57 92.83Q10.09 93.22 11.74 93.99L11.74 93.99Q14.07 95.25 16.30 95.55Q18.53 95.84 20.27 94.87L20.27 94.87Q21.92 93.90 22.12 91.57ZM21.92 87.98L21.92 87.98Q26.09 90.40 30.07 90.02Q34.05 89.63 37.64 87.01L37.64 87.01Q38.51 84.29 38.51 83.03L38.51 83.03Q38.70 79.44 39.19 77.50L39.19 77.50Q39.96 74.59 42.10 73.82L42.10 73.82Q42.49 69.84 47.43 72.07L47.43 72.07Q51.22 73.72 50.54 75.66L50.54 75.66L51.02 75.66Q51.90 72.94 46.85 70.91L46.85 70.91Q47.43 68.58 46.75 65.96L46.75 65.96Q45.59 61.01 42.00 57.81L42.00 57.81Q41.42 57.81 42.39 58.78L42.39 58.78Q44.13 60.43 45.49 63.83Q46.85 67.22 45.59 70.42L45.59 70.42Q44.81 70.23 44.04 70.23L44.04 70.23Q43.26 66.06 40.74 61.30L40.74 61.30Q37.34 55.10 35.70 48.11L35.70 48.11Q34.82 49.47 32.59 50.25L32.59 50.25Q32.30 50.34 31.91 50.44L31.91 50.44Q31.53 50.63 31.14 50.92L31.14 50.92Q30.65 51.22 30.36 51.41L30.36 51.41Q26.97 53.25 24.64 51.31L24.64 51.31Q24.44 51.12 23.86 50.63Q23.28 50.15 22.80 49.86L22.80 49.86Q22.70 49.76 22.41 49.57L22.41 49.57Q22.02 49.37 22.02 49.28L22.02 49.28Q21.92 50.73 21.53 52.38Q21.15 54.03 20.37 56.07L20.37 56.07Q19.59 58.01 19.21 59.17L19.21 59.17Q18.72 60.33 17.75 62.37L17.75 62.37Q16.78 64.50 16.59 64.89L16.59 64.89Q14.74 69.26 14.65 73.23L14.65 73.23Q11.45 68.97 15.04 61.98L15.04 61.98Q16.68 58.78 16.30 59.07L16.30 59.07Q13.29 63.73 12.51 67.22L12.51 67.22Q11.93 69.94 12.51 72.07L12.51 72.07Q13.19 74.40 16.00 76.14L16.00 76.14Q19.40 78.09 21.24 80.70L21.24 80.70Q22.80 82.74 22.21 84.10L22.21 84.10Q21.63 85.36 19.98 85.36L19.98 85.36Q21.34 87.11 21.92 87.98ZM57.33 86.43L57.33 86.43Q57.52 85.26 55.39 83.03L55.39 83.03Q54.71 82.26 54.22 80.12Q53.74 77.99 53.06 77.31L53.06 77.31Q52.19 76.44 49.95 76.63L49.95 76.63Q49.08 77.70 47.43 78.38Q45.78 79.06 44.62 78.86L44.62 78.86Q42.20 78.28 42.10 74.79L42.10 74.79L42.00 74.79Q40.74 75.47 40.06 77.79L40.06 77.79Q39.58 79.44 39.48 83.13L39.48 83.13Q39.38 84.00 38.22 88.66L38.22 88.66Q37.34 92.05 38.02 93.70L38.02 93.70Q39.48 96.52 42.58 96.32L42.58 96.32Q45.78 96.13 48.60 92.83L48.60 92.83Q49.86 91.28 52.09 90.11L52.09 90.11Q54.22 88.95 55.77 88.27L55.77 88.27Q57.23 87.40 57.33 86.43ZM22.12 47.34L22.12 47.34Q21.53 46.75 21.92 46.37L21.92 46.37Q22.12 46.37 22.12 46.46L22.12 46.46Q22.21 46.56 22.31 46.75Q22.41 46.95 22.50 47.05L22.50 47.05Q22.70 47.24 22.99 47.53L22.99 47.53Q23.38 47.82 23.57 48.02L23.57 48.02Q25.22 49.37 27.06 49.37L27.06 49.37Q29.00 49.37 31.14 48.02L31.14 48.02Q31.33 47.92 33.08 46.66L33.08 46.66Q33.27 46.46 33.37 46.27L33.37 46.27Q33.56 46.07 33.66 45.98Q33.76 45.88 33.85 45.88L33.85 45.88Q34.34 45.98 33.47 46.85L33.47 46.85Q32.69 47.53 31.43 48.21L31.43 48.21Q28.52 49.76 27.06 49.76L27.06 49.76Q25.22 49.76 23.28 48.31L23.28 48.31Q23.09 48.11 22.70 47.82Q22.31 47.53 22.12 47.34Z" transform="translate(19.938736842105264, -6.869)" fill="#000000"/>
</svg>