<svg width="58.2" height="77.6" viewBox="20 20 58.2 77.6" xmlns="http://www.w3.org/2000/svg">
  <path d="M32.79 99.13L32.79 99.13Q31.23 100.88 29.10 100.88L29.10 100.88Q26.97 100.88 25.41 99.13L25.41 99.13Q0 66.93 0 52.38L0 52.38Q0 40.35 8.54 31.82Q17.07 23.28 29.10 23.28Q41.13 23.28 49.66 31.82L49.66 31.82Q58.20 40.35 58.20 52.38L58.20 52.38Q58.20 66.93 32.79 99.13ZM36.08 45.59Q33.17 42.87 29.10 42.87Q25.03 42.87 22.21 45.69Q19.40 48.50 19.40 52.38L19.40 52.38Q19.40 56.45 22.21 59.27Q25.03 62.08 29.10 62.08Q33.17 62.08 35.99 59.27Q38.80 56.45 38.80 52.38Q38.80 48.31 36.08 45.59L36.08 45.59Z" transform="translate(20, -3.280000000000001)" fill="#ff5555"/>
</svg>
