<svg width="280" height="280" viewBox="0 0 280 280" fill="none" xmlns="http://www.w3.org/2000/svg">
<rect width="280" height="280" fill="url(#paint0_radial_4_156)"/>
<path d="M56.8462 97H66.4615L37.6154 140.269L66.4615 183.538H56.8462L28 140.269L56.8462 97Z" fill="white"/>
<path d="M108.82 139.968C108.82 145.916 107.692 150.976 105.438 155.149C103.2 159.321 100.146 162.508 96.2756 164.71C92.4226 166.894 88.0902 167.986 83.2784 167.986C78.4311 167.986 74.081 166.885 70.228 164.684C66.375 162.482 63.3299 159.295 61.0927 155.122C58.8555 150.95 57.7369 145.898 57.7369 139.968C57.7369 134.019 58.8555 128.959 61.0927 124.787C63.3299 120.614 66.375 117.436 70.228 115.252C74.081 113.05 78.4311 111.949 83.2784 111.949C88.0902 111.949 92.4226 113.05 96.2756 115.252C100.146 117.436 103.2 120.614 105.438 124.787C107.692 128.959 108.82 134.019 108.82 139.968ZM97.1279 139.968C97.1279 136.115 96.5508 132.865 95.3967 130.22C94.2603 127.574 92.6534 125.568 90.576 124.201C88.4986 122.833 86.0661 122.15 83.2784 122.15C80.4908 122.15 78.0583 122.833 75.9808 124.201C73.9034 125.568 72.2877 127.574 71.1335 130.22C69.9972 132.865 69.429 136.115 69.429 139.968C69.429 143.821 69.9972 147.07 71.1335 149.715C72.2877 152.361 73.9034 154.367 75.9808 155.735C78.0583 157.102 80.4908 157.785 83.2784 157.785C86.0661 157.785 88.4986 157.102 90.576 155.735C92.6534 154.367 94.2603 152.361 95.3967 149.715C96.5508 147.07 97.1279 143.821 97.1279 139.968Z" fill="white"/>
<path d="M175.115 113.346H117.423V122H175.115V113.346Z" fill="white"/>
<path d="M140.5 121.712H152.038L128.962 169.115H117.423L140.5 121.712Z" fill="white"/>
<path d="M210.354 128.382C210.141 126.234 209.227 124.565 207.611 123.375C205.995 122.185 203.802 121.59 201.032 121.59C199.15 121.59 197.561 121.857 196.265 122.39C194.969 122.904 193.975 123.624 193.282 124.547C192.607 125.47 192.27 126.518 192.27 127.69C192.234 128.666 192.439 129.518 192.883 130.246C193.344 130.974 193.975 131.605 194.774 132.137C195.573 132.652 196.496 133.105 197.543 133.496C198.591 133.869 199.71 134.188 200.899 134.454L205.8 135.626C208.179 136.159 210.363 136.869 212.352 137.757C214.34 138.645 216.063 139.737 217.519 141.033C218.975 142.329 220.102 143.856 220.901 145.614C221.718 147.372 222.135 149.387 222.153 151.66C222.135 154.998 221.283 157.892 219.596 160.342C217.927 162.775 215.512 164.666 212.352 166.015C209.209 167.347 205.418 168.013 200.979 168.013C196.576 168.013 192.74 167.338 189.473 165.989C186.224 164.639 183.685 162.642 181.856 159.996C180.045 157.333 179.095 154.039 179.006 150.115H190.166C190.29 151.944 190.814 153.471 191.737 154.696C192.678 155.903 193.93 156.818 195.493 157.439C197.073 158.043 198.857 158.345 200.846 158.345C202.799 158.345 204.495 158.061 205.933 157.492C207.389 156.924 208.516 156.134 209.315 155.122C210.114 154.11 210.514 152.947 210.514 151.633C210.514 150.408 210.15 149.378 209.422 148.544C208.712 147.709 207.664 146.999 206.279 146.413C204.912 145.827 203.234 145.294 201.245 144.815L195.306 143.323C190.707 142.205 187.076 140.456 184.413 138.077C181.75 135.697 180.427 132.492 180.445 128.462C180.427 125.159 181.306 122.274 183.081 119.806C184.875 117.338 187.334 115.412 190.459 114.027C193.584 112.642 197.135 111.949 201.112 111.949C205.161 111.949 208.694 112.642 211.712 114.027C214.749 115.412 217.11 117.338 218.797 119.806C220.484 122.274 221.354 125.133 221.407 128.382H210.354Z" fill="white"/>
<path d="M214.538 97H224.154L253 140.269L224.154 183.538H214.538L243.385 140.269L214.538 97Z" fill="white"/>
<defs>
<radialGradient id="paint0_radial_4_156" cx="0" cy="0" r="1" gradientUnits="userSpaceOnUse" gradientTransform="translate(140 140) rotate(90) scale(140)">
<stop stop-color="#293657"/>
<stop offset="1" stop-color="#1E2840"/>
</radialGradient>
</defs>
</svg>
