<svg width="58.2" height="58.2" viewBox="20 20 58.2 58.2" xmlns="http://www.w3.org/2000/svg">
  <path d="M0 91.18L0 62.08L0 32.98L58.20 32.98L58.20 91.18L0 91.18ZM46.95 59.75L46.95 59.75Q45.59 59.56 44.33 59.56Q43.07 59.56 42.49 59.66L42.49 59.66Q37.44 60.63 36.47 65.18L36.47 65.18Q36.47 65.67 36.47 66.74Q36.47 67.80 36.67 68.87L36.67 68.87Q37.25 70.52 38.22 71.78L38.22 71.78Q39.96 73.53 43.65 75.27L43.65 75.27Q47.14 76.73 47.72 77.50L47.72 77.50Q48.11 78.09 48.11 78.96L48.11 78.96Q48.11 80.03 47.34 80.70L47.34 80.70Q46.37 81.48 44.81 81.67L44.81 81.67Q43.07 81.77 41.71 81.00L41.71 81.00Q40.55 80.22 39.58 78.96L39.58 78.96L39.19 78.47L37.44 79.44L35.31 80.61Q35.11 80.70 34.73 81.00L34.73 81.00Q34.53 81.29 36.28 83.23L36.28 83.23Q38.80 85.75 42.29 86.23L42.29 86.23Q43.84 86.43 44.62 86.43L44.62 86.43Q45.40 86.43 46.56 86.23L46.56 86.23Q51.60 85.46 53.16 81.67L53.16 81.67Q53.74 80.03 53.54 77.99L53.54 77.99Q53.35 75.95 52.38 74.59L52.38 74.59Q51.02 72.36 45.40 69.94L45.40 69.94Q42.49 68.68 42.10 67.61L42.10 67.61Q41.71 67.03 41.71 66.64L41.71 66.64L41.71 66.54Q41.71 65.38 42.49 64.80L42.49 64.80Q43.26 64.12 44.62 64.31L44.62 64.31Q46.56 64.50 47.34 65.86L47.34 65.86Q47.72 66.35 47.92 66.44L47.92 66.44Q51.80 64.02 51.99 63.73L51.99 63.73Q51.41 62.86 50.63 61.89L50.63 61.89Q49.08 60.24 46.95 59.75ZM33.17 64.60L33.17 62.18L33.17 59.75L23.09 59.75L12.80 59.85Q12.80 60.43 12.80 61.69L12.80 61.69L12.80 62.27L12.80 64.60L20.37 64.60L20.37 86.14L25.80 86.14L25.80 64.60L33.17 64.60Z" transform="translate(20, -12.980000000000004)" fill="#000000"/>
</svg>