<svg width="197.2" height="138.6" viewBox="19.8 20 197.2 138.6" xmlns="http://www.w3.org/2000/svg">
  <path d="M192.80 80.40L192.80 80.40Q194.60 87.20 195.80 99.20Q197 111.20 197 119.60L197 119.60L197 128.20Q197 160.60 192.80 176L192.80 176Q191.40 182.40 186.60 187Q181.80 191.60 175.40 193.20L175.40 193.20Q168.60 195 149.40 196L149.40 196Q130.20 197.20 114.20 197.20L114.20 197.20L98.40 197.20Q37 197.40 21.60 193.20L21.60 193.20Q15.20 191.60 10.40 187Q5.60 182.40 4 176L4 176Q2.20 169.20 1.20 157.20Q0.20 145.20 0.20 136.80L0.20 136.80L0 128.20Q-0.20 95.80 4 80.40L4 80.40Q5.60 74 10.40 69.20Q15.20 64.40 21.60 63L21.60 63Q28.40 61.20 47.60 60Q66.80 58.80 82.60 58.80L82.60 58.80L98.40 58.80Q160 58.80 175.40 63L175.40 63Q181.80 64.40 186.60 69.20Q191.40 74 192.80 80.40ZM78.40 99L78.40 157.40L129.80 128.20L78.40 99Z" transform="translate(20, -38.79999999999998)" fill="#000000"/>
</svg>